<svg xmlns="http://www.w3.org/2000/svg" width="16.165" height="18.859" viewBox="0 0 16.165 18.859"><defs><style>.a{fill:#fff;}</style></defs><g transform="translate(-3.608 -27.706)"><path class="a" d="M70.568,41.89a4.682,4.682,0,0,1-.337-1.751v-4.35a6.722,6.722,0,0,0-4.749-6.4,2.014,2.014,0,0,0-3.973,0,6.722,6.722,0,0,0-4.749,6.4v4.35a4.682,4.682,0,0,1-.337,1.751l-.962,2.4a.674.674,0,0,0,.626.924h5.12a2.618,2.618,0,0,0,4.578,0H70.9a.674.674,0,0,0,.626-.924ZM57.081,43.871l.593-1.481a6.033,6.033,0,0,0,.433-2.251v-4.35a5.388,5.388,0,1,1,10.777,0v4.35a6.033,6.033,0,0,0,.433,2.251l.593,1.481Z" transform="translate(-51.805)"/></g></svg>