<svg xmlns="http://www.w3.org/2000/svg" xmlns:xlink="http://www.w3.org/1999/xlink" width="24" height="24" viewBox="0 0 24 24"><defs><style>.a,.c{fill:#058;}.a{stroke:#707070;}.b{clip-path:url(#a);}</style><clipPath id="a"><rect class="a" width="24" height="24" transform="translate(28 147)"/></clipPath></defs><g class="b" transform="translate(-28 -147)"><g transform="translate(28 147)"><path class="c" d="M17.013,0H3.231A1.408,1.408,0,0,0,1.825,1.406V6.188a.469.469,0,0,0,.937,0V1.406A.469.469,0,0,1,3.231.938H17.013a.469.469,0,0,1,.469.469V18.844a.469.469,0,0,1-.469.469H3.231a.469.469,0,0,1-.469-.469v-8.7a.469.469,0,0,0-.937,0v8.7A1.408,1.408,0,0,0,3.231,20.25H17.013a1.408,1.408,0,0,0,1.406-1.406V1.406A1.408,1.408,0,0,0,17.013,0Z"/><path class="c" d="M2.625,7.955a.469.469,0,1,0,.137.331A.472.472,0,0,0,2.625,7.955Z"/><path class="c" d="M4.5,21.328a.469.469,0,1,0,.137.331A.471.471,0,0,0,4.5,21.328Z"/><path class="c" d="M19.828,1.878a.469.469,0,0,0-.469.469V20.722a.469.469,0,0,1-.469.469H6.047a.469.469,0,0,0,0,.938H18.891A1.408,1.408,0,0,0,20.3,20.722V2.347A.469.469,0,0,0,19.828,1.878Z"/><path class="c" d="M21.706,3.75a.469.469,0,0,0-.469.469V22.594a.469.469,0,0,1-.469.469H6.05a.469.469,0,0,0,0,.938H20.769a1.408,1.408,0,0,0,1.406-1.406V4.219A.469.469,0,0,0,21.706,3.75Z"/><path class="c" d="M9.419,3.469h-4.5a.469.469,0,0,0-.469.469v4.5a.469.469,0,0,0,.469.469h4.5a.469.469,0,0,0,.469-.469v-4.5A.469.469,0,0,0,9.419,3.469Zm-.469,4.5H5.388V4.406H8.95Z"/><path class="c" d="M7.911,11.034a.469.469,0,0,0-.663,0L6,12.281,5.422,11.7a.469.469,0,0,0-.663.663l.911.911a.469.469,0,0,0,.663,0L7.911,11.7A.469.469,0,0,0,7.911,11.034Z"/><path class="c" d="M15.591,11.672H10.122a.469.469,0,0,0,0,.938h5.469a.469.469,0,0,0,0-.937Z"/><path class="c" d="M15.325,3.469H12.044a.469.469,0,0,0,0,.938h3.281a.469.469,0,0,0,0-.937Z"/><path class="c" d="M15.325,5.719H12.044a.469.469,0,0,0,0,.938h3.281a.469.469,0,0,0,0-.937Z"/><path class="c" d="M15.325,7.969H12.044a.469.469,0,0,0,0,.938h3.281a.469.469,0,0,0,0-.937Z"/><path class="c" d="M7.911,14.614a.469.469,0,0,0-.663,0L6,15.86l-.579-.579a.469.469,0,0,0-.663.663l.911.911a.469.469,0,0,0,.663,0l1.578-1.578A.469.469,0,0,0,7.911,14.614Z"/><path class="c" d="M15.591,15.234H10.122a.469.469,0,0,0,0,.938h5.469a.469.469,0,0,0,0-.937Z"/></g></g></svg>