<svg xmlns="http://www.w3.org/2000/svg" xmlns:xlink="http://www.w3.org/1999/xlink" width="16" height="17" viewBox="0 0 16 17"><defs><style>.a,.c{fill:#058;}.a{stroke:#707070;}.b{clip-path:url(#a);}</style><clipPath id="a"><rect class="a" width="16" height="17" transform="translate(0.222 -0.334)"/></clipPath></defs><g class="b" transform="translate(-0.222 0.334)"><g transform="translate(0 2.041)"><path class="c" d="M8.166,2.375A8.672,8.672,0,0,0,.027,8.334a.512.512,0,0,0,0,.33,8.672,8.672,0,0,0,8.138,5.959A8.672,8.672,0,0,0,16.3,8.664a.512.512,0,0,0,0-.33A8.672,8.672,0,0,0,8.166,2.375Zm0,11.228A7.644,7.644,0,0,1,1.051,8.5,7.644,7.644,0,0,1,8.166,3.4,7.644,7.644,0,0,1,15.28,8.5,7.644,7.644,0,0,1,8.166,13.6Z" transform="translate(0 -2.375)"/><path class="c" d="M9,5.937A3.062,3.062,0,1,0,12.062,9,3.066,3.066,0,0,0,9,5.937Zm0,5.1A2.041,2.041,0,1,1,11.041,9,2.043,2.043,0,0,1,9,11.041Z" transform="translate(-0.834 -2.875)"/></g></g></svg>