<svg xmlns="http://www.w3.org/2000/svg" xmlns:xlink="http://www.w3.org/1999/xlink" width="24" height="24" viewBox="0 0 24 24"><defs><style>.a,.c{fill:#058;}.a{stroke:#707070;}.b{clip-path:url(#a);}</style><clipPath id="a"><rect class="a" width="24" height="24" transform="translate(28 216)"/></clipPath></defs><g class="b" transform="translate(-28 -216)"><g transform="translate(28.693 216)"><path class="c" d="M7.183,24a11.418,11.418,0,0,1-5.265-1.081A4.2,4.2,0,0,1,.4,21.641a2.978,2.978,0,0,1-.336-2.194,7.814,7.814,0,0,1,1.891-4.3.922.922,0,0,1,1.127-.27.874.874,0,0,1,.507.975,1.4,1.4,0,0,1-.3.567A6.365,6.365,0,0,0,1.858,20a1.047,1.047,0,0,0,.534,1.068,6.621,6.621,0,0,0,2.59.909,10.879,10.879,0,0,0,5.549-.442,6.513,6.513,0,0,0,1.094-.593A.8.8,0,0,0,12,20.158a6.156,6.156,0,0,0-1.5-3.815.919.919,0,0,1,.415-1.549.847.847,0,0,1,.923.283,7.739,7.739,0,0,1,2,5.43,2.467,2.467,0,0,1-1.133,1.918,7.742,7.742,0,0,1-3.842,1.423C8.217,23.934,7.572,23.967,7.183,24Z"/><path class="c" d="M2.313,10.129A4.613,4.613,0,1,1,6.8,14.761,4.617,4.617,0,0,1,2.313,10.129Zm7.374.033a2.764,2.764,0,1,0-2.774,2.755A2.762,2.762,0,0,0,9.687,10.161Z"/><path class="c" d="M11.077,4.633a4.613,4.613,0,1,1,4.6,4.593A4.614,4.614,0,0,1,11.077,4.633ZM18.451,4.6A2.761,2.761,0,1,0,15.7,7.374,2.762,2.762,0,0,0,18.451,4.6Z"/><path class="c" d="M22.6,14.583a2.77,2.77,0,0,1-1.674,2.669,9.028,9.028,0,0,1-3.888,1.127c-.435.04-.876.059-1.311.066A.923.923,0,1,1,15.7,16.6a10.137,10.137,0,0,0,3.578-.606,7.779,7.779,0,0,0,1.147-.633.747.747,0,0,0,.323-.712,6.15,6.15,0,0,0-1.522-3.875.912.912,0,0,1,.31-1.5.931.931,0,0,1,1.114.323A7.9,7.9,0,0,1,22.6,14.583Z"/></g></g></svg>