<svg xmlns="http://www.w3.org/2000/svg" xmlns:xlink="http://www.w3.org/1999/xlink" width="24" height="24" viewBox="0 0 24 24"><defs><style>.a,.c{fill:#058;}.a{stroke:#707070;}.b{clip-path:url(#a);}.c{stroke:#058;stroke-width:0.5px;}</style><clipPath id="a"><rect class="a" width="24" height="24" transform="translate(28 280)"/></clipPath></defs><g class="b" transform="translate(-28 -280)"><g transform="translate(29.076 281.076)"><path class="c" d="M4.825,3.776a2.114,2.114,0,1,0-2.6,0A3.526,3.526,0,0,0,0,7.049V8.459H7.049V7.049A3.532,3.532,0,0,0,4.825,3.776ZM2.116,2.116A1.411,1.411,0,1,1,3.526,3.526,1.411,1.411,0,0,1,2.116,2.116ZM.705,7.754V7.049a2.817,2.817,0,0,1,5.634,0v.705Z"/><g transform="translate(14.803 0)"><path class="c" d="M21.087,3.776a2.116,2.116,0,1,0-2.606,0,3.528,3.528,0,0,0-2.219,3.273V8.459h7.044V7.049A3.528,3.528,0,0,0,21.087,3.776Zm-2.714-1.66a1.411,1.411,0,1,1,1.411,1.411A1.411,1.411,0,0,1,18.373,2.116ZM16.962,7.754V7.049a2.817,2.817,0,0,1,5.634,0v.705Z" transform="translate(-16.261 0)"/></g><g transform="translate(7.401 13.392)"><path class="c" d="M12.956,18.488a2.116,2.116,0,1,0-2.606,0,3.528,3.528,0,0,0-2.219,3.273v1.406h7.049V21.756A3.533,3.533,0,0,0,12.956,18.488Zm-2.714-1.664a1.411,1.411,0,1,1,1.411,1.411A1.411,1.411,0,0,1,10.242,16.823Zm4.227,5.638H8.836v-.705a2.817,2.817,0,0,1,5.634,0Z" transform="translate(-8.131 -14.712)"/></g><g transform="translate(7.857 5.389)"><path class="c" d="M14.27,5.92,11.7,8.491,9.126,5.92l-.495.5,2.714,2.714v4.086h.705V9.132l2.714-2.714Z" transform="translate(-8.631 -5.92)"/></g></g></g></svg>